<svg xmlns="http://www.w3.org/2000/svg" fill="none" viewBox="0 0 30 30" height="30" width="30">
<rect fill="black" rx="15" height="30" width="30"></rect>
<rect fill-opacity="0.5" fill="#0FBD8C" rx="15" height="30" width="30"></rect>
<path fill="#0FBD8C" d="M8 14C8 13.4477 8.44772 13 9 13H18C18.5523 13 19 13.4477 19 14V19C19 19.5523 18.5523 20 18 20H9C8.44771 20 8 19.5523 8 19V14Z"></path>
<path stroke-linejoin="round" stroke-linecap="round" stroke-width="2" stroke="#0FBD8C" d="M13 10H20C21.1046 10 22 10.8954 22 12V16M8 19V14C8 13.4477 8.44772 13 9 13H18C18.5523 13 19 13.4477 19 14V19C19 19.5523 18.5523 20 18 20H9C8.44771 20 8 19.5523 8 19Z"></path>
</svg>
