<svg xmlns="http://www.w3.org/2000/svg" fill="none" viewBox="0 0 30 30" height="30" width="30">
<rect fill="white" rx="15" height="30" width="30"></rect>
<rect fill-opacity="0.5" fill="#FFBF00" rx="15" height="30" width="30"></rect>
<path fill="#FFBF00" d="M14.1751 7.20359C14.5723 6.62402 15.4277 6.62401 15.8249 7.20359L17.973 10.338C18.103 10.5277 18.2945 10.6668 18.5151 10.7319L22.1599 11.8063C22.8339 12.0049 23.0982 12.8184 22.6697 13.3753L20.3526 16.3869C20.2123 16.5692 20.1392 16.7942 20.1455 17.0242L20.25 20.8226C20.2693 21.5249 19.5773 22.0277 18.9153 21.7923L15.335 20.5191C15.1183 20.4421 14.8817 20.4421 14.665 20.5191L11.0847 21.7923C10.4227 22.0277 9.73073 21.5249 9.75005 20.8226L9.85452 17.0242C9.86084 16.7942 9.78771 16.5692 9.64745 16.3869L7.33027 13.3753C6.90181 12.8184 7.16612 12.0049 7.84007 11.8063L11.4849 10.7319C11.7055 10.6668 11.897 10.5277 12.027 10.338L14.1751 7.20359Z"></path>
</svg>
