<svg xmlns="http://www.w3.org/2000/svg" fill="none" viewBox="0 0 30 30" height="30" width="30">
<rect fill="black" rx="15" height="30" width="30"></rect>
<rect fill-opacity="0.5" fill="#9966FF" rx="15" height="30" width="30"></rect>
<path stroke-linecap="round" stroke-width="2" stroke="#9966FF" d="M14 11C13.4696 11 12.9609 11.2107 12.5858 11.5858C12.2107 11.9609 12 12.4696 12 13C12 13.5304 12.2107 14.0391 12.5858 14.4142C12.9609 14.7893 13.4696 15 14 15"></path>
<path stroke-width="2" stroke="#9966FF" d="M14 19C15.0609 19 16.0783 18.5786 16.8284 17.8284C17.5786 17.0783 18 16.0609 18 15C18 13.9391 17.5786 12.9217 16.8284 12.1716C16.0783 11.4214 15.0609 11 14 11"></path>
<path stroke-width="2" stroke="#9966FF" d="M14 7C12.4087 7 10.8826 7.63214 9.75736 8.75736C8.63214 9.88258 8 11.4087 8 13C8 14.5913 8.63214 16.1174 9.75736 17.2426C10.8826 18.3679 12.4087 19 14 19"></path>
<path stroke-linecap="round" stroke-width="2" stroke="#9966FF" d="M14 23C16.1217 23 18.1566 22.1571 19.6569 20.6569C21.1571 19.1566 22 17.1217 22 15C22 12.8783 21.1571 10.8434 19.6569 9.34315C18.1566 7.84286 16.1217 7 14 7"></path>
</svg>
