<svg xmlns="http://www.w3.org/2000/svg" fill="none" viewBox="0 0 20 20" height="20" width="20">
<path fill="#FFBF00" d="M9.17513 1.20359C9.57233 0.624016 10.4277 0.624014 10.8249 1.20359L13.3257 4.85257C13.4557 5.0423 13.6472 5.18141 13.8678 5.24645L18.111 6.49726C18.7849 6.69593 19.0492 7.50939 18.6208 8.06626L15.9232 11.5723C15.7829 11.7546 15.7098 11.9796 15.7161 12.2096L15.8377 16.6316C15.8571 17.334 15.1651 17.8367 14.5031 17.6013L10.335 16.1191C10.1183 16.0421 9.88167 16.0421 9.66495 16.1191L5.49693 17.6013C4.83492 17.8367 4.14295 17.334 4.16226 16.6316L4.28388 12.2096C4.29021 11.9796 4.21708 11.7546 4.07681 11.5723L1.37922 8.06626C0.950753 7.5094 1.21506 6.69593 1.88901 6.49726L6.1322 5.24645C6.35282 5.18141 6.54429 5.0423 6.67432 4.85257L9.17513 1.20359Z"></path>
</svg>
