<svg xmlns="http://www.w3.org/2000/svg" fill="none" viewBox="0 0 30 30" height="30" width="30">
<path stroke-width="2" stroke="white" d="M14.1751 7.9725C14.5723 7.39292 15.4277 7.39292 15.8249 7.97249L17.2998 10.1246C17.6899 10.6938 18.2643 11.1111 18.9261 11.3062L21.4287 12.0439C22.1026 12.2426 22.3669 13.056 21.9385 13.6129L20.3475 15.6806C19.9267 16.2275 19.7073 16.9028 19.7263 17.5925L19.798 20.2005C19.8173 20.9029 19.1253 21.4056 18.4633 21.1702L16.0051 20.2961C15.355 20.0649 14.645 20.0649 13.9949 20.2961L11.5367 21.1702C10.8747 21.4056 10.1827 20.9029 10.202 20.2005L10.2737 17.5925C10.2927 16.9028 10.0733 16.2275 9.65252 15.6806L8.06155 13.6129C7.63308 13.056 7.8974 12.2425 8.57134 12.0439L11.0739 11.3062C11.7357 11.1111 12.3101 10.6938 12.7002 10.1246L14.1751 7.9725Z"></path>
</svg>
